#!OML:ASF F:\VICON\USERDATA\INSTALL\rory3\rory3.ASF
:FULLY-SPECIFIED
:DEGREES
1
root 0.6635756109940181 18.040088949329274 -17.994282877487244 -1.7935244499412617 -3.1659368802618166 -5.658900733973055
lfemur -25.68378966398816 2.0402186227205057 -14.117708360275003
ltibia 67.51927921065686
lfoot -4.512922420898242 -3.4467389987032755
ltoes -6.189815088294792
rfemur -9.513951334051043 7.674707247110851 33.22148869370239
rtibia 30.755504142114404
rfoot -15.484492956947943 -3.82468431326376
rtoes 11.010789068636214
lowerback 13.219671482834176 0.13723038742389343 3.4218051293807963
upperback -0.18617376687596454 0.905343184141296 2.4919158227907783
thorax -7.624225826965194 0.3590476539389034 0.5382681094552293
lowerneck -16.162201454603828 -3.149174190414297 -2.276095191158737
upperneck 22.006491882247893 -3.7424802329036964 -0.23558705271419977
head 9.677702651122331 -1.958294702751064 -0.18943457644153744
lclavicle 6.56334066828368e-16 -1.0577713773230896e-16
lhumerus -31.840398895616882 3.761842574649175 80.82959388701985
lradius 26.825295610913685
lwrist 6.433676382229212
lhand -26.977507271861455 21.86889753450849
lfingers 7.12502
lthumb -0.39837627184009605 51.84829750679069
rclavicle 6.56334066828368e-16 -1.0577713773230896e-16
rhumerus -28.272699903733905 -19.5052979671564 -77.82890168427419
rradius 23.219507134513847
rwrist 5.002667738790692
rhand -14.591725565105607 14.635735840067202
rfingers 7.12502
rthumb 11.558474440779333 -15.025564599901603
2
root 0.6798272277417381 17.951895332812033 -17.125083321087757 -1.4415466850687892 -4.011614029628865 -6.2816591502693795
lfemur -29.2638874009825 2.022078677676846 -13.618009087091693
ltibia 60.28298338962447
lfoot -7.162069355995866 0.05360095876128179
ltoes -6.549634499041182
rfemur -6.660103297247289 7.70909713943188 34.1180873480705
rtibia 30.906704061182165
rfoot -18.447390032123387 -3.9939940084627152
rtoes 10.174690258956325
lowerback 12.664476475459232 0.6145412283293237 4.687402139769785
upperback 0.05809698722617422 1.6726259764242584 2.3396277566186194
thorax -6.997645344596716 0.6952355660152825 -0.475602580736149
lowerneck -15.947905032527162 -3.22064201182601 -1.972639688715376
upperneck 21.528197403794405 -3.8990974839857993 -0.3317351441277746
head 9.461539904363454 -2.016692027541832 -0.28360243876025854
lclavicle 6.563340668515563e-16 -1.0577715999866646e-16
lhumerus -32.83409738348501 4.614731131548699 80.92659337837017
lradius 25.7063979051956
lwrist 5.508019010452341
lhand -26.778008209295425 21.353398437073174
lfingers 7.12502
lthumb -0.2057062092894253 51.33299840764141
rclavicle 6.563340668515563e-16 -1.0577715999866646e-16
rhumerus -25.671003966363923 -16.1402023693519 -79.8264972520681
rradius 25.864901557317513
rwrist 1.7670044691499798
rhand -15.670217278063816 20.85280747625263
rfingers 7.12502
rthumb 10.518282723317496 -8.864062904859507
3
root 0.696929824421301 17.945195817725125 -16.234583775558715 -0.7418181284817398 -4.666721821372613 -6.72020803501911
lfemur -30.479986632277274 0.2839719434026038 -12.824810240805942
ltibia 47.13129098473904
lfoot -6.345370300867153 2.774782216410256
ltoes -7.459583008875777
rfemur -2.642106061275749 7.540047668746556 34.57938665574392
rtibia 28.136405544029603
rfoot -19.723488772422222 -3.78736438044924
rtoes 7.803533634676306
lowerback 12.379479038316122 1.067775228587967 5.553730093317757
upperback -0.0795477734147917 2.3804330173526753 2.2527188602300026
thorax -6.9180565535344485 1.0086936868673395 -1.1744326101170046
lowerneck -16.475796218781355 -3.226381836856138 -1.6885138997836155
upperneck 21.750994831767308 -3.9505765804339337 -0.41625834539498563
head 9.629624264370392 -2.0239016972634314 -0.37859128244208734
lclavicle 6.563340502268599e-16 -1.0577718308361446e-16
lhumerus -34.23049525855703 5.520779598500839 81.05129272446692
lradius 24.827699706952252
lwrist 5.096140179901753
lhand -26.628208913193216 17.72980478146383
lfingers 7.12502
lthumb -0.060991513408650055 47.709504742267036
rclavicle 6.563340502268599e-16 -1.0577718308361446e-16
rhumerus -23.828406843637282 -12.105507647512479 -81.35219386689748
rradius 28.767995436822066
rwrist -0.461437895566152
rhand -18.93249221101099 22.26530103210856
rfingers 7.12502
rthumb 7.370317789023442 -7.586298774704508
4
root 0.7145204095929201 17.914198061352852 -15.330484236970584 0.06255826357112548 -5.431069244888247 -7.42651623884443
lfemur -29.986886943969207 -3.936633269954804 -10.341313853071842
ltibia 32.06659968461225
lfoot -4.143962847762101 4.58410966161125
ltoes -5.856675633856312
rfemur 1.3329712042209785 7.467007897443062 35.25378564359339
rtibia 25.357607031426753
rfoot -20.40678809790309 -3.4983949006687127
rtoes 6.5795153772617105
lowerback 11.902083331326214 1.4953623985908446 6.466407937377344
upperback -0.2508128230005881 3.0539402016757298 2.341377734396551
thorax -6.752709065129552 1.3094609242865807 -1.6921904092081035
lowerneck -16.520195477485057 -3.291489852136907 -1.56184577714966
upperneck 21.62929623668516 -4.055324741912993 -0.4875876713425288
head 9.590815566578321 -2.069829593284664 -0.4370189560899632
lclavicle 6.5633411220424915e-16 -1.0577716048987413e-16
lhumerus -35.31349361053568 6.8395173671763745 80.98539307003408
lradius 23.590602243600888
lwrist 4.418182104831157
lhand -26.727808445181072 21.333498471915142
lfingers 7.12502
lthumb -0.15717244543376396 51.313198442255896
rclavicle 6.5633411220424915e-16 -1.0577716048987413e-16
rhumerus -22.05880960691901 -9.861130583591525 -81.89539266166403
rradius 30.684391396548733
rwrist -1.7286682596566205
rhand -18.672394209582684 22.760698771981854
rfingers 7.12502
rthumb 7.621325790369428 -7.081991091413721
5
root 0.7408567885176494 17.868001405081916 -14.389284717316485 0.5215628488023909 -6.723334888881919 -7.5232259929070295
lfemur -27.725488373415658 -8.460759563772163 -7.870527446850973
ltibia 16.922808430165745
lfoot -6.067730622079428 7.7442851993933886
ltoes -0.49805740932817777
rfemur 5.068568634458806 6.904329659257788 35.036485969720786
rtibia 23.57250798693017
rfoot -20.5355879707583 -2.7342862762609785
rtoes 4.766007959079018
lowerback 11.603186019178569 2.1305381946628446 6.71469735086462
upperback -0.3569336316540653 3.8992766676460167 2.1688399253654627
thorax -6.60654128538873 1.7138572098614122 -2.138548511808352
lowerneck -16.447396692943848 -3.333588568821292 -1.3429090220420683
upperneck 21.39829890337394 -4.222831801859125 -0.27797465215713213
head 9.496248739724516 -2.1062879231112293 -0.41808638587354297
lclavicle 6.56334037016298e-16 -1.057771707225434e-16
lhumerus -36.511891786908 8.810944031492319 80.00599820582273
lradius 21.884405742129623
lwrist 3.0174760818620547
lhand -26.28771051317451 19.197202212262248
lfingers 7.12502
lthumb 0.2678604865395213 49.176802177123896
rclavicle 6.56334037016298e-16 -1.057771707225434e-16
rhumerus -20.905811407361973 -8.921811812402003 -82.22509193013704
rradius 32.2390881188338
rwrist -2.2376872008689457
rhand -19.064391197509998 22.440600232350363
rfingers 7.12502
rthumb 7.24295880312079 -7.415449559558604
6
root 0.7834747834826445 17.789807064813797 -13.394785224864346 0.575849504071543 -7.900710920148796 -7.405586292070256
lfemur -24.33669051549937 -7.162243497724737 -8.673506278911645
ltibia 7.683053766132669
lfoot -4.951761913187555 6.800126532560364
ltoes 0.04028800905740759
rfemur 8.13135652753023 7.080119108839407 34.446786854752155
rtibia 24.56090745787321
rfoot -20.323188180428765 -1.35805875382486
rtoes 2.1773716444160574
lowerback 11.186389767244357 2.5564153759833284 6.9362168275881935
upperback -0.13506530384894538 4.42587446614125 1.9382528534721133
thorax -6.0554596562078595 1.9859847103398423 -2.5542667446539773
lowerneck -17.134385222886316 -3.27185045081431 -1.2683901264970918
upperneck 21.484597907117486 -4.225651752363859 0.0425632188034587
head 9.660103241662387 -2.0605800170121538 -0.3341722907865946
lclavicle 6.563340602810959e-16 -1.0577708051098851e-16
lhumerus -37.35189050866428 10.857390568873472 78.84920427186347
lradius 20.48760860623989
lwrist 1.599930106706693
lhand -26.402209975148498 18.988702577315088
lfingers 7.12502
lthumb 0.15725102471739705 48.9684025414501
rclavicle 6.563340602810959e-16 -1.0577708051098851e-16
rhumerus -19.58761346576948 -8.725282069500933 -82.63889101201187
rradius 32.64668725950621
rwrist -2.050417590400139
rhand -19.30718933186907 22.678199148365493
rfingers 7.12502
rthumb 7.00864066888155 -7.185810614483359
7
root 0.8398624537255193 17.714712500182905 -12.366485749662228 0.11582442532060622 -7.688901634121665 -6.706088070926843
lfemur -25.39678984540286 -5.794767640596249 -11.492612178498964
ltibia 14.576209785328654
lfoot -1.0892463818838385 3.616101028454776
ltoes -4.775877403811564
rfemur 9.39761565645545 7.274988498679399 33.4860882965864
rtibia 29.225304961178427
rfoot -18.197390278910696 -0.011492377991056735
rtoes -3.462560326240423
lowerback 11.18868974656165 2.395916438249838 6.544397753148726
upperback -0.17582007824004597 4.153755603766531 1.7605851095834308
thorax -6.13724841385308 1.8586758796857104 -2.485167038386208
lowerneck -16.89238926328504 -3.2927898125095836 -1.2924297702021526
upperneck 21.465398128764342 -4.213381967720919 -0.11674917571601973
head 9.605025089784332 -2.0770692616320123 -0.37896827388409704
lclavicle 6.563341878617505e-16 -1.0577710621554595e-16
lhumerus -39.0372879439596 12.08578849040543 78.0349085418989
lradius 20.27240904750315
lwrist 0.4296354295296325
lhand -26.22591080356759 18.20550394858309
lfingers 7.12502
lthumb 0.3275531961005709 48.185003910994936
rclavicle 6.563341878617505e-16 -1.0577710621554595e-16
rhumerus -19.525113563365032 -8.896341845721684 -82.7465907730508
rradius 32.68728717391075
rwrist -1.185569389332417
rhand -19.397188640321772 23.063297391452302
rfingers 7.12502
rthumb 6.921781360499763 -6.80355237051688
